<svg version="1.1" viewBox="0.0 0.0 512.0 512.0" fill="none" stroke="none" stroke-linecap="square" stroke-miterlimit="10" xmlns:xlink="http://www.w3.org/1999/xlink" xmlns="http://www.w3.org/2000/svg"><clipPath id="p.0"><path d="m0 0l512.0 0l0 512.0l-512.0 0l0 -512.0z" clip-rule="nonzero"/></clipPath><g clip-path="url(#p.0)"><defs><radialGradient id="p.1" gradientUnits="userSpaceOnUse" gradientTransform="matrix(19.02731386455436 0.0 0.0 19.02731386455436 0.0 0.0)" spreadMethod="pad" cx="13.454342626727664" cy="13.454342626727664" fx="13.454342626727664" fy="13.454342626727664" r="19.027313232421875"><stop offset="0.0" stop-color="#4e29aa"/><stop offset="1.0" stop-color="#1e123d"/></radialGradient></defs><path fill="url(#p.1)" d="m0 0l512.0 0l0 512.0l-512.0 0z" fill-rule="evenodd"/><path fill="#000000" fill-opacity="0.0" d="m83.451965 -147.2042l383.49606 0l0 716.81885l-383.49606 0z" fill-rule="evenodd"/><path fill="#38761d" d="m383.10822 427.02457q0 8.8125 -0.765625 15.046875q-0.75 6.234375 -2.28125 10.1875q-1.515625 3.953125 -3.953125 5.625q-2.421875 1.671875 -5.46875 1.671875l-226.20312 0q-6.6875 0 -11.546875 -1.21875q-4.859375 -1.21875 -7.90625 -4.703125q-3.046875 -3.5 -4.421875 -10.1875q-1.359375 -6.6875 -1.359375 -17.328125q0 -10.03125 0.90625 -17.171875q0.921875 -7.15625 3.34375 -12.78125q2.4375 -5.625 6.234375 -10.9375q3.8125 -5.328125 9.890625 -11.71875l68.109375 -72.96875q20.359375 -21.28125 32.828125 -38.75q12.46875 -17.484375 19.453125 -31.921875q7.0 -14.453125 9.578125 -26.609375q2.59375 -12.15625 2.59375 -23.109375q0 -10.03125 -3.203125 -19.0q-3.1875 -8.96875 -9.421875 -15.65625q-6.234375 -6.6875 -15.65625 -10.484375q-9.421875 -3.8125 -22.1875 -3.8125q-17.9375 0 -31.78125 4.5625q-13.828125 4.5625 -24.328125 10.1875q-10.484375 5.625 -17.484375 10.34375q-6.984375 4.703125 -10.9375 4.703125q-2.734375 0 -4.71875 -1.8125q-1.96875 -1.828125 -3.1875 -6.078125q-1.203125 -4.265625 -1.96875 -11.40625q-0.765625 -7.15625 -0.765625 -17.484383q0 -7.0 0.453125 -11.703125q0.46875 -4.71875 1.375 -8.203125q0.90625 -3.5 2.421875 -6.078125q1.53125 -2.59375 5.328125 -6.234375q3.796875 -3.65625 13.984375 -9.28125q10.1875 -5.625 25.078125 -10.9375q14.90625 -5.328125 32.84375 -8.96875q17.9375 -3.65625 37.390625 -3.65625q30.71875 0 53.671875 7.75q22.953125 7.75 38.15625 21.59375q15.203125 13.828125 22.640625 32.828125q7.453125 19.000008 7.453125 40.890633q0 19.15625 -3.65625 37.703125q-3.640625 18.546875 -15.203125 39.984375q-11.546875 21.421875 -32.53125 47.421875q-20.96875 26.0 -55.625 60.34375l-45.90625 47.125l155.04688 0q3.046875 0 5.625 1.828125q2.59375 1.828125 4.40625 5.625q1.828125 3.796875 2.734375 10.03125q0.921875 6.234375 0.921875 14.75z" fill-rule="nonzero"/><path fill="#ff7733" d="m92.0105 253.95041l0 0c0 -5.520584 4.475319 -9.995911 9.995903 -9.995911l297.99243 0c2.6510925 0 5.193573 1.0531464 7.0681763 2.9277344c1.8746033 1.8746033 2.9277344 4.417099 2.9277344 7.0681763l0 37.99243c0 5.5205994 -4.4753113 9.995911 -9.995911 9.995911l-297.99243 0l0 0c-5.520584 0 -9.995903 -4.4753113 -9.995903 -9.995911z" fill-rule="evenodd"/><path stroke="#ff7733" stroke-width="1.0" stroke-linejoin="round" stroke-linecap="butt" d="m92.0105 253.95041l0 0c0 -5.520584 4.475319 -9.995911 9.995903 -9.995911l297.99243 0c2.6510925 0 5.193573 1.0531464 7.0681763 2.9277344c1.8746033 1.8746033 2.9277344 4.417099 2.9277344 7.0681763l0 37.99243c0 5.5205994 -4.4753113 9.995911 -9.995911 9.995911l-297.99243 0l0 0c-5.520584 0 -9.995903 -4.4753113 -9.995903 -9.995911z" fill-rule="evenodd"/><path fill="#000000" fill-opacity="0.0" d="m121.77706 65.06457l402.55118 82.92913l-10.740173 52.220474l-402.55118 -82.92913z" fill-rule="evenodd"/><path fill="#434343" d="m148.42937 99.85531l-0.83413696 4.0557327l1.6833954 0.34679413q0.33668518 0.069358826 0.449234 0.22016907q0.11254883 0.15081787 0.071624756 0.34977722q-0.040908813 0.19895935 -0.20697021 0.30832672q-0.16291809 0.094062805 -0.49960327 0.02470398l-3.810608 -0.7850189q-0.33666992 -0.069358826 -0.44921875 -0.22016907q-0.10940552 -0.1661148 -0.068496704 -0.3650818q0.040924072 -0.19895935 0.20384216 -0.29302216q0.16291809 -0.094062805 0.499588 -0.02470398l1.2243042 0.25222015l2.2348633 -10.86631l-1.224289 -0.25222015q-0.33668518 -0.069358826 -0.449234 -0.22016907q-0.11254883 -0.15081024 -0.068481445 -0.36507416q0.040908813 -0.19895935 0.2038269 -0.29302216q0.16291809 -0.094062805 0.49960327 -0.02470398l3.8105927 0.7850189q0.33668518 0.069358826 0.449234 0.22016907q0.11254883 0.15081024 0.071640015 0.3497696q-0.044067383 0.21426392 -0.20698547 0.30832672q-0.16291809 0.094062805 -0.499588 0.02470398l-1.6834106 -0.34679413l-1.1520538 5.601509l7.4418488 -4.3057556l-0.9947357 -0.20492554q-0.33668518 -0.069358826 -0.46453857 -0.22332q-0.11254883 -0.15081024 -0.068481445 -0.36507416q0.040924072 -0.19896698 0.20384216 -0.2930298q0.1782074 -0.090904236 0.5148926 -0.02154541l2.678131 0.55171967q0.32138062 0.06620026 0.43392944 0.21701813q0.11254883 0.15081024 0.071640015 0.3497696q-0.044067383 0.21426392 -0.20698547 0.30832672q-0.16291809 0.094062805 -0.4842987 0.02785492l-0.38258362 -0.078811646l-5.9265594 3.4533386q1.0258789 0.6739807 1.6188049 1.5140152q0.6113739 0.8278885 1.0234833 2.2368927q0.25309753 0.7859802 0.7586365 3.6021576l1.1324615 0.23329926q0.33668518 0.069358826 0.449234 0.22016907q0.11254883 0.15081024 0.071624756 0.34977722q-0.040908813 0.19895935 -0.20697021 0.30832672q-0.16291809 0.094062805 -0.49960327 0.02470398l-1.7599182 -0.36255646q-0.6174164 -4.211197 -1.3670654 -5.530205q-0.7496643 -1.3190155 -2.1090698 -2.0776596l-2.1763916 1.2745819zm17.867004 8.849571l0.27069092 -1.3162079q-2.3325653 1.2583618 -4.582199 0.79491425q-1.637497 -0.33733368 -2.385727 -1.3529434q-0.74824524 -1.0156174 -0.49957275 -2.2246857q0.27069092 -1.3162003 1.6811371 -2.0466385q1.428894 -0.7425842 3.7550354 -0.26337433q0.62745667 0.1292572 1.3431396 0.37241364q0.71884155 0.22785187 1.541214 0.5727539l0.30218506 -1.4692459q0.15423584 -0.74993134 -0.43641663 -1.4459229q-0.5753479 -0.69283295 -1.9526672 -0.97657776q-1.0712585 -0.22068787 -3.1101227 -0.0025863647q-0.37400818 0.034622192 -0.46583557 0.015701294q-0.16833496 -0.0346756 -0.2808838 -0.18548584q-0.09410095 -0.16296387 -0.05633545 -0.34661865q0.040924072 -0.19896698 0.18537903 -0.28087616q0.16921997 -0.124671936 1.3155823 -0.19161987q1.7746735 -0.09703827 2.646988 0.08266449q1.7140045 0.35310364 2.5018616 1.408783q0.79100037 1.0403748 0.57066345 2.111702l-1.2401886 6.030037l1.224289 0.25221252q0.32138062 0.066207886 0.43392944 0.21701813q0.1278534 0.15396118 0.08692932 0.35292053q-0.040908813 0.19896698 -0.22227478 0.30517578q-0.16291809 0.094062805 -0.4842987 0.027862549l-2.1425018 -0.44137573zm0.9317169 -4.530182q-0.60498047 -0.31607056 -1.3085175 -0.5407715q-0.68507385 -0.23684692 -1.4808655 -0.40078735q-1.9741669 -0.40670013 -3.2676086 0.22021484q-0.98605347 0.450943 -1.1686249 1.3386154q-0.16998291 0.82644653 0.35630798 1.5251312q0.54159546 0.70184326 1.7658844 0.9540558q1.1936798 0.24591064 2.3013 -0.020454407q1.1076202 -0.26637268 2.3897705 -1.0710907l0.41235352 -2.0049133zm15.827454 0.7719116l-0.26756287 1.3008957l-9.274002 -1.9105301l0.26756287 -1.3008957l9.274002 1.9105301zm9.873474 9.244835l0.27070618 -1.3162003q-2.3325653 1.2583542 -4.582199 0.79491425q-1.637497 -0.3373413 -2.3857422 -1.352951q-0.74823 -1.0156174 -0.49957275 -2.2246857q0.27070618 -1.3162003 1.6811523 -2.0466385q1.428894 -0.7425842 3.7550354 -0.26337433q0.62745667 0.1292572 1.3431396 0.37241364q0.71884155 0.22785187 1.541214 0.5727539l0.30218506 -1.4692459q0.15423584 -0.74993134 -0.43641663 -1.4459229q-0.5753479 -0.69283295 -1.9526672 -0.97657776q-1.0712585 -0.22068787 -3.1101227 -0.0025863647q-0.37402344 0.034622192 -0.46583557 0.015701294q-0.16835022 -0.0346756 -0.28089905 -0.18548584q-0.09410095 -0.16296387 -0.05632019 -0.34661865q0.040924072 -0.19896698 0.18537903 -0.28087616q0.16920471 -0.124671936 1.3155823 -0.19161987q1.7746735 -0.09703827 2.646988 0.08266449q1.7140045 0.35310364 2.5018616 1.408783q0.79100037 1.0403748 0.57066345 2.111702l-1.2401886 6.030037l1.224289 0.25221252q0.32138062 0.066207886 0.43392944 0.21701813q0.1278534 0.15396118 0.08692932 0.35292053q-0.040924072 0.19896698 -0.22229004 0.30517578q-0.16290283 0.094062805 -0.48428345 0.027862549l-2.142517 -0.44137573zm0.9317322 -4.530182q-0.60498047 -0.31607056 -1.3085175 -0.5407715q-0.6850891 -0.23684692 -1.4808655 -0.40078735q-1.9741821 -0.40670013 -3.2676086 0.22021484q-0.9860687 0.450943 -1.1686249 1.3386154q-0.16998291 0.82644653 0.35630798 1.5251312q0.54159546 0.70184326 1.7658844 0.9540558q1.1936798 0.24591064 2.3013 -0.020454407q1.1076202 -0.26637268 2.3897705 -1.0710907l0.41235352 -2.0049133zm12.384598 7.2734604l0.27070618 -1.3162003q-2.3325653 1.2583618 -4.582199 0.79491425q-1.637497 -0.33733368 -2.3857422 -1.352951q-0.74823 -1.0156097 -0.49957275 -2.224678q0.27070618 -1.3162003 1.6811523 -2.0466385q1.4288788 -0.74259186 3.7550354 -0.26338196q0.62745667 0.12926483 1.3431396 0.37242126q0.71884155 0.22785187 1.541214 0.5727539l0.30218506 -1.4692535q0.15423584 -0.7499237 -0.43641663 -1.4459152q-0.5753479 -0.6928406 -1.9526672 -0.97657776q-1.0712585 -0.22068787 -3.1101227 -0.0025939941q-0.37402344 0.034622192 -0.46583557 0.015708923q-0.16835022 -0.034683228 -0.28089905 -0.18549347q-0.09410095 -0.16296387 -0.05632019 -0.34661865q0.040908813 -0.19895935 0.18537903 -0.28086853q0.16920471 -0.124671936 1.315567 -0.19161987q1.7746887 -0.0970459 2.6470032 0.08265686q1.7140045 0.35310364 2.5018616 1.408783q0.79100037 1.0403748 0.57066345 2.111702l-1.2401886 6.030037l1.224289 0.25221252q0.32136536 0.066207886 0.43392944 0.21701813q0.1278534 0.15396881 0.08692932 0.35292816q-0.040924072 0.19895935 -0.22229004 0.30517578q-0.16291809 0.094062805 -0.48428345 0.02785492l-2.142517 -0.44137573zm0.9317169 -4.530182q-0.60498047 -0.31606293 -1.3085022 -0.54076385q-0.6850891 -0.23685455 -1.4808807 -0.40079498q-1.9741669 -0.4066925 -3.2675934 0.22022247q-0.9860687 0.450943 -1.1686249 1.3386078q-0.16998291 0.82645416 0.35630798 1.5251389q0.54159546 0.70183563 1.7658844 0.9540558q1.1936798 0.24590302 2.3013 -0.020462036q1.1076202 -0.26636505 2.3897705 -1.0710907l0.41233826 -2.0049133zm15.827454 0.7719116l-0.2675476 1.3008957l-9.274002 -1.9105225l0.2675476 -1.3008957l9.274002 1.9105225zm13.10347 5.25193l-9.274002 -1.9105301q-0.13243103 1.8073273 0.883667 3.1493301q1.0345612 1.3298416 2.8556976 1.7050171q1.0253448 0.21122742 2.2117615 0.10466766q1.1864166 -0.106552124 2.0036926 -0.51249695q0.23358154 -0.12736511 0.38661194 -0.095840454q0.16833496 0.0346756 0.2624359 0.19763947q0.10940552 0.16612244 0.071640015 0.34977722q-0.03778076 0.18365479 -0.24073792 0.31732178q-0.63365173 0.443779 -2.0626373 0.6439438q-1.410553 0.18800354 -2.8184814 -0.10204315q-2.3414612 -0.48236084 -3.5876617 -2.3343964q-1.2462006 -1.8520432 -0.79922485 -4.0253067q0.4092102 -1.9896011 2.1526337 -3.0981293q1.7618866 -1.1206741 3.9350128 -0.6729889q2.2343292 0.460289 3.3738403 2.2105865q1.1395111 1.7502899 0.64575195 4.073448zm-0.72621155 -1.1227417q0.03300476 -1.5566101 -0.9380493 -2.7297974q-0.95262146 -1.1853409 -2.5442047 -1.5132217q-1.591568 -0.32787323 -2.9313507 0.36925507q-1.3397827 0.6971359 -1.9268799 2.155548l8.340485 1.718216zm14.042526 3.8660202l-9.273987 -1.9105225q-0.13243103 1.8073273 0.883667 3.1493225q1.0345612 1.3298492 2.8556824 1.7050171q1.0253448 0.21122742 2.2117615 0.10467529q1.1864166 -0.10655975 2.003708 -0.5125046q0.23356628 -0.12736511 0.38659668 -0.095840454q0.16835022 0.034683228 0.26245117 0.1976471q0.10940552 0.1661148 0.071624756 0.3497696q-0.037765503 0.18365479 -0.24073792 0.3173294q-0.6336365 0.44377136 -2.0626373 0.64393616q-1.4105377 0.18801117 -2.8184814 -0.10203552q-2.341446 -0.48236084 -3.5876465 -2.334404q-1.2462006 -1.8520355 -0.79922485 -4.025299q0.4092102 -1.9896088 2.1526337 -3.0981293q1.7618866 -1.1206818 3.9349976 -0.6729965q2.2343292 0.460289 3.3738403 2.2105865q1.1395111 1.7502975 0.64575195 4.073448zm-0.72621155 -1.1227417q0.03302002 -1.5566025 -0.9380493 -2.7297974q-0.95262146 -1.1853409 -2.5441895 -1.5132141q-1.5915833 -0.32788086 -2.931366 0.36924744q-1.3397675 0.6971359 -1.9268646 2.155548l8.340469 1.718216zm14.255402 1.3573837l-0.2675476 1.3008957l-9.274002 -1.9105301l0.2675476 -1.3008957l9.274002 1.9105301zm10.513977 -4.805542l-2.6125793 12.702873l3.5810547 0.7377167q0.33666992 0.069366455 0.44921875 0.22018433q0.11254883 0.15080261 0.071624756 0.34976196q-0.040924072 0.19895935 -0.20697021 0.30833435q-0.16290283 0.094055176 -0.49960327 0.02470398l-8.065002 -1.6614685q-0.32138062 -0.066207886 -0.44924927 -0.22016907q-0.109375 -0.16612244 -0.068481445 -0.3650818q0.040924072 -0.19895935 0.20385742 -0.29301453q0.17819214 -0.090911865 0.49957275 -0.02470398l3.5810547 0.7377167l2.4205933 -11.7692795l-2.6322327 -0.5422592q-0.32138062 -0.066207886 -0.44921875 -0.22016907q-0.10940552 -0.1661148 -0.065338135 -0.38037872q0.040924072 -0.19896698 0.2038269 -0.2930298q0.16607666 -0.10936737 0.5027466 -0.040008545l3.5351257 0.7282715zm12.675842 16.793648l0.27069092 -1.3161926q-2.33255 1.2583618 -4.582184 0.7949066q-1.6375122 -0.33732605 -2.3857422 -1.3529358q-0.74823 -1.015625 -0.49957275 -2.2246857q0.27069092 -1.3162003 1.6811523 -2.0466385q1.428894 -0.74259186 3.7550354 -0.26338196q0.6274414 0.1292572 1.3431396 0.37242126q0.71884155 0.22785187 1.5411987 0.5727539l0.30218506 -1.4692535q0.15423584 -0.7499237 -0.43640137 -1.4459152q-0.5753479 -0.6928406 -1.9526672 -0.9765854q-1.0712585 -0.22068787 -3.110138 -0.0025863647q-0.37399292 0.034622192 -0.4658203 0.015708923q-0.16833496 -0.034683228 -0.2808838 -0.18549347q-0.09411621 -0.16296387 -0.05633545 -0.34661865q0.040924072 -0.19895935 0.18536377 -0.28086853q0.16921997 -0.124671936 1.3155823 -0.19161987q1.7746887 -0.0970459 2.6470032 0.08265686q1.7139893 0.35310364 2.5018616 1.408783q0.7909851 1.0403748 0.5706482 2.111702l-1.2401733 6.030037l1.2242737 0.25221252q0.32138062 0.066207886 0.43392944 0.21702576q0.12786865 0.15396118 0.08694458 0.35292053q-0.040924072 0.19895935 -0.22229004 0.30517578q-0.16290283 0.094055176 -0.48428345 0.02784729l-2.142517 -0.44137573zm0.9317322 -4.5301666q-0.60498047 -0.31607056 -1.3085327 -0.5407715q-0.6850586 -0.23684692 -1.4808655 -0.40079498q-1.9741516 -0.4066925 -3.2676086 0.22022247q-0.98605347 0.450943 -1.1686096 1.3386078q-0.16998291 0.82644653 0.35629272 1.5251312q0.54159546 0.70184326 1.7658997 0.9540558q1.1936646 0.24591064 2.3013 -0.020446777q1.107605 -0.26637268 2.3897705 -1.071106l0.41235352 -2.004898zm15.827454 0.7719116l-0.26757812 1.3008881l-9.273987 -1.9105225l0.2675476 -1.3009033l9.274017 1.9105377zm7.055359 -5.518051l-1.1520691 5.6015015q1.0643005 -0.75387573 1.9387817 -0.97254944q0.8744812 -0.21868896 1.8539429 -0.016906738q1.071228 0.22068787 1.7302551 0.73931885q0.6743469 0.5218048 1.00354 1.4032288q0.34448242 0.88456726 0.16821289 1.7416382l-1.161499 5.647415l1.0253296 0.21122742q0.32138062 0.066207886 0.43392944 0.21702576q0.11254883 0.15080261 0.071624756 0.34976196q-0.040924072 0.19895935 -0.20697021 0.30833435q-0.16290283 0.094055176 -0.48428345 0.02784729l-2.9689026 -0.61161804q-0.33670044 -0.0693512 -0.44924927 -0.22016907q-0.10940552 -0.16610718 -0.068481445 -0.3650818q0.040924072 -0.19895935 0.2038269 -0.29301453q0.16293335 -0.094070435 0.49960327 -0.02470398l1.0253601 0.21122742l1.1488953 -5.586197q0.20458984 -0.994812 -0.37930298 -1.8010864q-0.56863403 -0.80311584 -1.8388367 -1.0647888q-0.99472046 -0.20492554 -1.7994385 0.13980103q-0.5773926 0.24797058 -2.0202026 1.290802l-1.186676 5.7698517l1.0406494 0.21438599q0.32138062 0.066207886 0.43392944 0.2170105q0.11254883 0.15081787 0.071624756 0.34977722q-0.040924072 0.19895935 -0.20697021 0.30833435q-0.16293335 0.094055176 -0.48428345 0.02784729l-2.9689026 -0.61161804q-0.33670044 -0.0693512 -0.44924927 -0.22016907q-0.10940552 -0.16612244 -0.068481445 -0.3650818q0.040924072 -0.19895935 0.2038269 -0.29301453q0.16293335 -0.094070435 0.49960327 -0.02470398l1.0253296 0.21122742l2.4205933 -11.769287l-1.2242737 -0.25221252q-0.32138062 -0.066207886 -0.44924927 -0.22016907q-0.10940552 -0.1661148 -0.065338135 -0.38038635q0.040924072 -0.19895935 0.2038269 -0.29302216q0.18136597 -0.10621643 0.5027466 -0.040008545l2.1272278 0.4382248zm14.360504 7.36145l-0.47216797 2.2957q2.1057434 -1.241272 3.0724792 -1.5207062q0.98205566 -0.2762909 1.7319336 -0.12181091q0.8110657 0.167099 1.4017334 0.8630829q0.5906372 0.69599915 0.5339966 0.9714813q-0.040924072 0.19895935 -0.20700073 0.3083191q-0.16604614 0.109375 -0.36499023 0.06838989q-0.12243652 -0.025222778 -0.19265747 -0.07159424q-0.05178833 -0.058532715 -0.22509766 -0.30162048q-0.30389404 -0.46144104 -0.5510559 -0.65592957q-0.24398804 -0.20979309 -0.5194397 -0.26654053q-0.5968323 -0.12295532 -1.5392761 0.1933899q-0.93927 0.3010559 -3.386139 1.7273102l-1.0261536 4.989319l4.024872 0.82914734q0.33666992 0.069366455 0.44921875 0.22016907q0.12786865 0.15397644 0.08694458 0.3529358q-0.040924072 0.19895935 -0.22229004 0.30517578q-0.16290283 0.094055176 -0.49960327 0.02470398l-7.1315002 -1.469162q-0.33666992 -0.0693512 -0.44921875 -0.22016907q-0.11254883 -0.15080261 -0.071624756 -0.34976196q0.03778076 -0.18365479 0.2006836 -0.27772522q0.16290283 -0.094070435 0.49960327 -0.02470398l2.1884155 0.45083618l1.5612488 -7.59111l-1.6680908 -0.3436432q-0.33666992 -0.069366455 -0.44921875 -0.22016907q-0.10940552 -0.16612244 -0.068481445 -0.3650818q0.040893555 -0.19895935 0.2038269 -0.2930298q0.16604614 -0.10935974 0.5027466 -0.040008545l2.5863037 0.5328064zm15.806732 -1.6093597l-0.4815979 2.3416138l-1.3314209 -0.274292l0.4815979 -2.3416138l1.3314209 0.274292zm-0.91412354 4.677368l-1.7438354 8.47879l3.5657349 0.73457336q0.33670044 0.0693512 0.44924927 0.22016907q0.12783813 0.15396118 0.08694458 0.35292053q-0.040924072 0.19895935 -0.22229004 0.30517578q-0.16293335 0.094070435 -0.49960327 0.02470398l-8.065002 -1.6614685q-0.32138062 -0.06619263 -0.43392944 -0.2170105q-0.10940552 -0.16612244 -0.068481445 -0.3650818q0.040893555 -0.19895935 0.2038269 -0.29301453q0.16290283 -0.094070435 0.48428345 -0.027862549l3.5810547 0.73773193l1.5549622 -7.560501l-2.647522 -0.54541016q-0.33670044 -0.069366455 -0.46453857 -0.22332764q-0.10940552 -0.16612244 -0.068481445 -0.3650818q0.040924072 -0.19895935 0.2038269 -0.29301453q0.18136597 -0.10621643 0.5180359 -0.036865234l3.5657654 0.73457336zm8.679321 1.7880249l-0.18887329 0.9182739q1.4180603 -1.0000763 2.5811157 -0.7604675q0.7192688 0.1481781 1.1640625 0.62268066q0.460083 0.47766113 0.6546936 1.3153992q0.76950073 -0.63912964 1.4572144 -0.8803253q0.7029724 -0.23805237 1.3304443 -0.108795166q0.99472046 0.20492554 1.4472046 0.95222473q0.59521484 0.9840851 0.3937683 1.9635773l-1.3094482 6.366745l0.78048706 0.16078186q0.32138062 0.066207886 0.43392944 0.2170105q0.11254883 0.15081787 0.071624756 0.34977722q-0.040924072 0.19895935 -0.20700073 0.30833435q-0.16290283 0.094055176 -0.48428345 0.02784729l-1.6833801 -0.3467865l1.4762573 -7.177887q0.14480591 -0.70401 -0.19241333 -1.2361298q-0.31878662 -0.54426575 -0.86972046 -0.6577606q-0.5050049 -0.104034424 -1.1346436 0.16508484q-0.62646484 0.2538147 -1.5539246 1.1954193l-1.2433472 6.045349l0.7498779 0.15447998q0.33670044 0.0693512 0.44924927 0.22016907q0.11254883 0.15080261 0.071624756 0.34977722q-0.040924072 0.19895935 -0.20697021 0.3083191q-0.16293335 0.094070435 -0.49960327 0.02470398l-1.6680908 -0.3436432l1.4636841 -7.1166687q0.15109253 -0.73461914 -0.1829834 -1.2820282q-0.33093262 -0.5627289 -0.86654663 -0.6730652q-0.48971558 -0.10089111 -1.0270996 0.10746765q-0.7493286 0.30827332 -1.7073975 1.243576l-1.2433472 6.045334l0.78048706 0.16079712q0.32138062 0.066207886 0.43392944 0.2170105q0.11254883 0.15081787 0.071624756 0.34977722q-0.040924072 0.19895935 -0.20697021 0.3083191q-0.16290283 0.094070435 -0.48428345 0.027862549l-2.448578 -0.50442505q-0.33670044 -0.069366455 -0.44924927 -0.22016907q-0.10940552 -0.16612244 -0.068481445 -0.3650818q0.040924072 -0.19895935 0.2038269 -0.2930298q0.16293335 -0.094055176 0.49960327 -0.02470398l0.76519775 0.15763855l1.5549622 -7.560501l-0.76519775 -0.15763855q-0.33666992 -0.0693512 -0.44921875 -0.22016907q-0.10940552 -0.16610718 -0.068481445 -0.36506653q0.040924072 -0.19897461 0.2038269 -0.2930298q0.16604614 -0.109375 0.5027466 -0.040008545l1.6680908 0.3436432z" fill-rule="nonzero"/><path fill="#000000" fill-opacity="0.0" d="m137.27734 390.41843l411.0866 0.2204895l0 56.566925l-411.0866 -0.2204895z" fill-rule="evenodd"/><path fill="#434343" d="m177.92317 413.32272l0 -0.34375q0 -0.359375 0.140625 -0.51553345q0.140625 -0.17181396 0.375 -0.1716919q0.25 1.5258789E-4 0.390625 0.17208862q0.140625 0.15634155 0.140625 0.51571655l0 2.65625q0 0.359375 -0.140625 0.53115845q-0.140625 0.15618896 -0.390625 0.15603638q-0.21875 -9.1552734E-5 -0.359375 -0.1408081q-0.140625 -0.15631104 -0.15625 -0.48446655q-0.0625 -1.0469055 -1.078125 -1.8755798q-1.0 -0.8286438 -2.625 -0.8295288q-1.71875 -9.1552734E-4 -2.734375 0.88916016q-1.015625 0.8744507 -1.015625 2.0775757q0 0.625 0.28125 1.1251526q0.28125 0.5001526 0.75 0.8285217q0.484375 0.31277466 1.0625 0.50057983q0.59375 0.1878357 1.859375 0.40725708q2.125 0.34487915 2.921875 0.7046814q1.078125 0.48495483 1.625 1.344635q0.546875 0.84402466 0.546875 2.0002747q0 1.78125 -1.421875 3.046112q-1.421875 1.2492371 -3.828125 1.2479553q-2.703125 -0.0014343262 -4.328125 -1.6898193l0 0.59375q0 0.359375 -0.140625 0.53118896q-0.140625 0.15615845 -0.375 0.15603638q-0.234375 -1.2207031E-4 -0.390625 -0.15646362q-0.140625 -0.17193604 -0.140625 -0.53131104l0 -2.875q0 -0.375 0.140625 -0.53118896q0.15625 -0.17178345 0.390625 -0.17166138q0.21875 1.2207031E-4 0.359375 0.1564331q0.140625 0.14071655 0.15625 0.46884155q0.0625 1.1406555 1.21875 2.0787659q1.15625 0.93814087 3.109375 0.93917847q1.953125 0.0010375977 3.078125 -0.96710205q1.140625 -0.98376465 1.140625 -2.3275146q0 -0.8125 -0.4375 -1.4533386q-0.4375 -0.64086914 -1.28125 -1.0007019q-0.59375 -0.26593018 -2.46875 -0.59506226q-2.59375 -0.4232788 -3.734375 -1.3145142q-1.140625 -0.89123535 -1.140625 -2.5474854q0 -1.625 1.296875 -2.796173q1.3125 -1.1711731 3.453125 -1.170044q2.1875 0.0011901855 3.75 1.3613892zm14.480606 13.445282l0 -1.5q-2.265625 1.9050293 -4.84375 1.903656q-1.859375 -0.0010070801 -2.921875 -0.9390869q-1.046875 -0.9536743 -1.046875 -2.3286743q0 -1.5 1.375 -2.6242676q1.390625 -1.1242371 4.046875 -1.1228333q0.71875 3.9672852E-4 1.5625 0.09460449q0.84375 0.07858276 1.828125 0.28222656l0 -1.6875q0 -0.84375 -0.796875 -1.4691772q-0.796875 -0.64105225 -2.375 -0.64190674q-1.21875 -6.4086914E-4 -3.40625 0.70129395q-0.390625 0.12478638 -0.5 0.12472534q-0.203125 -9.1552734E-5 -0.34375 -0.1408081q-0.140625 -0.15631104 -0.140625 -0.37506104q0 -0.21875 0.125 -0.32806396q0.171875 -0.18740845 1.390625 -0.51486206q1.9375 -0.5145874 2.921875 -0.5140686q1.96875 0.0010681152 3.0625 0.97039795q1.109375 0.96932983 1.109375 2.1880798l0 6.890625l1.375 7.324219E-4q0.390625 2.1362305E-4 0.546875 0.14093018q0.171875 0.14071655 0.171875 0.37509155q0 0.21875 -0.171875 0.37490845q-0.15625 0.14053345 -0.546875 0.14031982l-2.421875 -0.0012817383zm0 -5.171875q-0.734375 -0.20352173 -1.5625 -0.2977295q-0.8125 -0.109802246 -1.703125 -0.11029053q-2.265625 -0.0011901855 -3.546875 0.9824829q-0.96875 0.7182312 -0.96875 1.7338562q0 0.9375 0.734375 1.5941467q0.75 0.6410217 2.15625 0.64178467q1.34375 7.324219E-4 2.5 -0.5299072q1.15625 -0.54626465 2.390625 -1.7174683l0 -2.296875zm17.511856 -2.7249756l0 1.484375l-10.609375 -0.005706787l0 -1.484375l10.609375 0.005706787zm7.777481 3.2854004l0 4.625l-2.421875 -0.0012817383q-0.375 -2.1362305E-4 -0.546875 -0.14093018q-0.15625 -0.15634155 -0.15625 -0.37509155q0 -0.234375 0.15625 -0.37490845q0.171875 -0.14053345 0.546875 -0.14031982l1.390625 7.324219E-4l0 -13.4375l-1.390625 -7.324219E-4q-0.375 -2.1362305E-4 -0.546875 -0.14093018q-0.15625 -0.15634155 -0.15625 -0.39071655q0 -0.21875 0.15625 -0.35928345q0.171875 -0.15615845 0.546875 -0.15594482l2.421875 0.0012817383l0 9.5625l4.4218597 -3.7007446l-0.53125 -2.746582E-4q-0.375 -2.1362305E-4 -0.53125 -0.14093018q-0.15625 -0.15631104 -0.15625 -0.37506104q0 -0.234375 0.15625 -0.37493896q0.15625 -0.15615845 0.53125 -0.15594482l3.328125 0.0017700195q0.375 2.1362305E-4 0.53125 0.15652466q0.171875 0.14071655 0.171875 0.37509155q0 0.21875 -0.171875 0.37490845q-0.15625 0.14056396 -0.53125 0.14035034l-1.203125 -6.4086914E-4l-4.0624847 3.3884583l5.1406097 5.2371216l1.203125 6.4086914E-4q0.375 2.1362305E-4 0.53125 0.14089966q0.171875 0.14071655 0.171875 0.37509155q0 0.21875 -0.171875 0.37490845q-0.15625 0.14056396 -0.53125 0.14035034l-3.375 -0.0018005371q-0.359375 -2.1362305E-4 -0.53125 -0.14093018q-0.15625 -0.15631104 -0.15625 -0.37506104q0 -0.234375 0.15625 -0.37493896q0.171875 -0.14053345 0.53125 -0.14031982l0.734375 3.9672852E-4l-4.4687347 -4.596161l-1.1875 0.99935913zm20.308716 4.635895l0 -1.5q-2.265625 1.9050293 -4.84375 1.903656q-1.859375 -0.0010070801 -2.921875 -0.9390564q-1.046875 -0.95370483 -1.046875 -2.3287048q0 -1.5 1.375 -2.6242676q1.390625 -1.1242371 4.046875 -1.1228027q0.71875 3.6621094E-4 1.5625 0.094573975q0.84375 0.07858276 1.828125 0.28222656l0 -1.6875q0 -0.84375 -0.796875 -1.4691772q-0.796875 -0.64105225 -2.375 -0.64190674q-1.21875 -6.4086914E-4 -3.40625 0.70132446q-0.390625 0.12478638 -0.5 0.12472534q-0.203125 -1.2207031E-4 -0.34375 -0.1408081q-0.140625 -0.15634155 -0.140625 -0.37509155q0 -0.21875 0.125 -0.32806396q0.171875 -0.18740845 1.390625 -0.51486206q1.9375 -0.5145874 2.921875 -0.5140686q1.96875 0.0010681152 3.0625 0.97039795q1.109375 0.96936035 1.109375 2.1881104l0 6.890625l1.375 7.324219E-4q0.390625 2.1362305E-4 0.546875 0.14089966q0.171875 0.14071655 0.171875 0.37509155q0 0.21875 -0.171875 0.37490845q-0.15625 0.14056396 -0.546875 0.14035034l-2.421875 -0.0013122559zm0 -5.171875q-0.734375 -0.20352173 -1.5625 -0.29769897q-0.8125 -0.10983276 -1.703125 -0.11029053q-2.265625 -0.0012207031 -3.546875 0.9824524q-0.96875 0.7182312 -0.96875 1.7338562q0 0.9375 0.734375 1.5941467q0.75 0.64105225 2.15625 0.64178467q1.34375 7.324219E-4 2.5 -0.5299072q1.15625 -0.54623413 2.390625 -1.7174683l0 -2.296875zm17.511856 -2.7249756l0 1.484375l-10.609375 -0.005706787l0 -1.484375l10.609375 0.005706787zm10.418106 -7.6037903l0 14.484375l4.078125 0.0021972656q0.390625 2.1362305E-4 0.546875 0.14089966q0.15625 0.14071655 0.15625 0.37509155q0 0.21875 -0.15625 0.37490845q-0.15625 0.14056396 -0.546875 0.14035034l-9.203125 -0.0049438477q-0.359375 -1.8310547E-4 -0.53125 -0.14089966q-0.15625 -0.15634155 -0.15625 -0.37509155q0 -0.234375 0.15625 -0.37490845q0.171875 -0.14053345 0.53125 -0.14035034l4.09375 0.0021972656l0 -13.4375l-3.0 -0.0016174316q-0.375 -1.8310547E-4 -0.546875 -0.14089966q-0.15625 -0.15634155 -0.15625 -0.39071655q0 -0.21875 0.15625 -0.35928345q0.15625 -0.15618896 0.546875 -0.15597534l4.03125 0.002166748zm17.66809 15.525116l0 -1.5q-2.265625 1.9050293 -4.84375 1.9036255q-1.859375 -9.765625E-4 -2.921875 -0.9390564q-1.046875 -0.9536743 -1.046875 -2.3286743q0 -1.5 1.375 -2.6242676q1.390625 -1.1242676 4.046875 -1.1228333q0.71875 3.9672852E-4 1.5625 0.094573975q0.84375 0.07858276 1.828125 0.28225708l0 -1.6875q0 -0.84375 -0.796875 -1.4691772q-0.796875 -0.64105225 -2.375 -0.64190674q-1.21875 -6.713867E-4 -3.40625 0.70129395q-0.390625 0.12478638 -0.5 0.12472534q-0.203125 -9.1552734E-5 -0.34375 -0.1408081q-0.140625 -0.15631104 -0.140625 -0.37506104q0 -0.21875 0.125 -0.32806396q0.171875 -0.18740845 1.390625 -0.5148926q1.9375 -0.5145874 2.921875 -0.5140381q1.96875 0.0010375977 3.0625 0.97036743q1.109375 0.96936035 1.109375 2.1881104l0 6.890625l1.375 7.324219E-4q0.390625 2.1362305E-4 0.546875 0.14093018q0.171875 0.14071655 0.171875 0.37509155q0 0.21875 -0.171875 0.37490845q-0.15625 0.14053345 -0.546875 0.14031982l-2.421875 -0.0012817383zm0 -5.171875q-0.734375 -0.20352173 -1.5625 -0.2977295q-0.8125 -0.109802246 -1.703125 -0.11029053q-2.265625 -0.0012207031 -3.546875 0.9824829q-0.96875 0.7182312 -0.96875 1.7338562q0 0.9375 0.734375 1.5941467q0.75 0.6410217 2.15625 0.64178467q1.34375 7.019043E-4 2.5 -0.5299072q1.15625 -0.54626465 2.390625 -1.7174683l0 -2.296875zm17.511871 -2.725006l0 1.484375l-10.609375 -0.0056762695l0 -1.484375l10.609375 0.0056762695zm6.480591 -7.605896l0 6.390625q0.984375 -1.0776062 1.890625 -1.5146179q0.90625 -0.43701172 2.03125 -0.43640137q1.21875 6.4086914E-4 2.0625 0.42297363q0.84375 0.42233276 1.40625 1.3132629q0.578125 0.8909302 0.578125 1.8596802l0 6.453125l1.15625 6.4086914E-4q0.390625 1.8310547E-4 0.546875 0.14089966q0.15625 0.14071655 0.15625 0.37509155q0 0.21875 -0.15625 0.37490845q-0.15625 0.14053345 -0.546875 0.14035034l-3.375 -0.0018310547q-0.375 -1.8310547E-4 -0.546875 -0.14089966q-0.15625 -0.15634155 -0.15625 -0.37509155q0 -0.234375 0.15625 -0.37490845q0.171875 -0.14053345 0.546875 -0.14035034l1.171875 6.4086914E-4l0 -6.375q0 -1.125 -0.8125 -1.8754272q-0.8125 -0.76608276 -2.265625 -0.7668457q-1.125 -6.1035156E-4 -1.9375 0.5614624q-0.578125 0.3902893 -1.90625 1.8583374l0 6.59375l1.171875 6.4086914E-4q0.359375 1.8310547E-4 0.515625 0.14089966q0.171875 0.14071655 0.171875 0.37509155q0 0.21875 -0.171875 0.37490845q-0.15625 0.14053345 -0.515625 0.14035034l-3.390625 -0.0018310547q-0.375 -1.8310547E-4 -0.53125 -0.14089966q-0.15625 -0.15634155 -0.15625 -0.37509155q0 -0.234375 0.15625 -0.37490845q0.15625 -0.14053345 0.53125 -0.14035034l1.171875 6.4086914E-4l0 -13.4375l-1.390625 -7.6293945E-4q-0.375 -1.8310547E-4 -0.546875 -0.14089966q-0.15625 -0.15634155 -0.15625 -0.39071655q0 -0.21875 0.15625 -0.35928345q0.171875 -0.15615845 0.546875 -0.15597534l2.4375 0.0013122559zm17.371246 4.821808l0 2.609375q2.0312195 -1.8270264 3.0312195 -2.342102q1.015625 -0.5307007 1.859375 -0.53027344q0.9375 5.187988E-4 1.734375 0.62594604q0.796875 0.62542725 0.796875 0.93792725q0 0.234375 -0.15625 0.39053345q-0.15625 0.15615845 -0.390625 0.15603638q-0.125 -6.1035156E-5 -0.21875 -0.03137207q-0.078125 -0.046905518 -0.3125 -0.2814026q-0.4375 -0.43774414 -0.765625 -0.59417725q-0.3125 -0.17202759 -0.625 -0.1722107q-0.671875 -3.3569336E-4 -1.640625 0.5460205q-0.953125 0.5463562 -3.3124695 2.6544495l0 5.703125l4.5937195 0.0024719238q0.390625 2.1362305E-4 0.546875 0.14093018q0.15625 0.14071655 0.15625 0.37509155q0 0.21875 -0.15625 0.37490845q-0.15625 0.14053345 -0.546875 0.14031982l-8.1405945 -0.0043640137q-0.375 -1.8310547E-4 -0.546875 -0.14089966q-0.15625 -0.14071655 -0.15625 -0.35946655q0 -0.21875 0.15625 -0.35928345q0.15625 -0.14056396 0.546875 -0.14035034l2.5 0.0013427734l0 -8.65625l-1.90625 -0.0010070801q-0.375 -2.1362305E-4 -0.546875 -0.14093018q-0.15625 -0.15634155 -0.15625 -0.39071655q0 -0.21875 0.15625 -0.35928345q0.15625 -0.15615845 0.546875 -0.15594482l2.953125 0.0015563965zm16.94934 -5.334656l0 2.6875l-1.53125 -8.239746E-4l0 -2.6875l1.53125 8.239746E-4zm0.046875 5.3437805l0 9.671875l4.078125 0.0021972656q0.375 1.8310547E-4 0.53125 0.14089966q0.171875 0.14071655 0.171875 0.37509155q0 0.21875 -0.171875 0.37490845q-0.15625 0.14053345 -0.53125 0.14035034l-9.203125 -0.0049438477q-0.375 -1.8310547E-4 -0.53125 -0.14089966q-0.15625 -0.15634155 -0.15625 -0.37509155q0 -0.234375 0.15625 -0.37490845q0.15625 -0.14053345 0.53125 -0.14035034l4.078125 0.0021972656l0 -8.625l-3.03125 -0.0016479492q-0.375 -1.8310547E-4 -0.546875 -0.14089966q-0.15625 -0.15634155 -0.15625 -0.37509155q0 -0.234375 0.15625 -0.37490845q0.171875 -0.15615845 0.546875 -0.15597534l4.078125 0.0021972656zm9.918091 0.0053100586l0 1.046875q1.3125 -1.4211731 2.65625 -1.4204407q0.796875 4.272461E-4 1.40625 0.42263794q0.609375 0.4222107 1.015625 1.2974243q0.6875 -0.8746338 1.390625 -1.2961426q0.71875 -0.42147827 1.4375 -0.42111206q1.125 6.1035156E-4 1.796875 0.73535156q0.875 0.93795776 0.875 2.0473328l0 7.265625l0.875 4.8828125E-4q0.375 1.8310547E-4 0.53125 0.14089966q0.171875 0.14071655 0.171875 0.37509155q0 0.21875 -0.171875 0.37490845q-0.15625 0.14053345 -0.53125 0.14035034l-1.90625 -0.0010375977l0 -8.203125q0 -0.78125 -0.484375 -1.2971191q-0.484375 -0.53152466 -1.109375 -0.53186035q-0.578125 -3.0517578E-4 -1.21875 0.43685913q-0.625 0.4215393 -1.421875 1.6711121l0 6.890625l0.859375 4.5776367E-4q0.375 2.1362305E-4 0.53125 0.14089966q0.171875 0.14071655 0.171875 0.37509155q0 0.21875 -0.171875 0.37490845q-0.15625 0.14056396 -0.53125 0.14035034l-1.90625 -0.0010375977l0 -8.125q0 -0.828125 -0.5 -1.3596191q-0.484375 -0.54714966 -1.09375 -0.54748535q-0.546875 -2.746582E-4 -1.09375 0.35879517q-0.75 0.49960327 -1.578125 1.7491455l0 6.890625l0.875 4.8828125E-4q0.375 1.8310547E-4 0.53125 0.14089966q0.15625 0.14071655 0.15625 0.37509155q0 0.21875 -0.15625 0.37490845q-0.15625 0.14053345 -0.53125 0.14035034l-2.796875 -0.0014953613q-0.375 -2.1362305E-4 -0.53125 -0.14093018q-0.15625 -0.15631104 -0.15625 -0.37506104q0 -0.234375 0.15625 -0.37493896q0.15625 -0.14053345 0.53125 -0.14031982l0.875 4.5776367E-4l0 -8.625l-0.875 -4.5776367E-4q-0.375 -2.1362305E-4 -0.53125 -0.14093018q-0.15625 -0.15631104 -0.15625 -0.39068604q0 -0.21875 0.15625 -0.35931396q0.15625 -0.15615845 0.53125 -0.15594482l1.921875 0.0010070801z" fill-rule="nonzero"/><path fill="#000000" fill-opacity="0.0" d="m394.3408 177.63258l-272.6299 307.65356l-83.874016 -74.23624l272.62994 -307.65353z" fill-rule="evenodd"/><path fill="#434343" d="m345.55258 188.47998l4.5700073 -5.157089l-4.469513 -3.9559326l-0.92230225 1.0407715q-0.24871826 0.2806549 -0.4576416 0.30439758q-0.20892334 0.023742676 -0.38442993 -0.13160706q-0.16381836 -0.14497375 -0.17718506 -0.36547852q-0.0016784668 -0.21014404 0.2470398 -0.49079895l2.3937988 -2.7013397q0.24871826 -0.2806549 0.4576416 -0.30439758q0.22064209 -0.013381958 0.38446045 0.1315918q0.17547607 0.15534973 0.17715454 0.36549377q0.0016784668 0.21014404 -0.24700928 0.49079895l-0.7772217 0.87705994l9.290039 8.222534l0.42486572 -0.47946167q0.24871826 -0.2806549 0.46801758 -0.31608582q0.20892334 -0.023742676 0.38442993 0.13160706q0.17550659 0.15533447 0.17718506 0.36547852q-0.00869751 0.22183228 -0.25741577 0.5024872l-2.0414734 2.3037415q-0.24871826 0.28067017 -0.4576416 0.30439758q-0.20892334 0.023742676 -0.38442993 -0.1315918q-0.17550659 -0.15533447 -0.17718506 -0.36547852q-0.0016784668 -0.21014404 0.2470398 -0.4908142l0.92230225 -1.0407715l-4.0483093 -3.5831146l-4.5700073 5.157089l4.0483093 3.58313l0.9222717 -1.0407715q0.24871826 -0.28067017 0.4576416 -0.30439758q0.20892334 -0.023742676 0.38442993 0.1315918q0.17550659 0.15533447 0.18756104 0.35379028q0.0016784668 0.21014404 -0.25741577 0.50250244l-2.0414734 2.3037262q-0.25906372 0.2923584 -0.46798706 0.31610107q-0.20895386 0.023742676 -0.38442993 -0.13160706q-0.17550659 -0.15533447 -0.17718506 -0.36547852q-0.0016784668 -0.21014404 0.25738525 -0.5024872l0.42486572 -0.47946167l-9.290039 -8.222549l-0.77719116 0.87705994q-0.24871826 0.2806549 -0.4576416 0.30439758q-0.20895386 0.023742676 -0.38446045 -0.1315918q-0.16378784 -0.14498901 -0.17715454 -0.36549377q-0.0016784668 -0.21014404 0.24700928 -0.49079895l2.3938293 -2.7013397q0.24871826 -0.2806549 0.4576416 -0.30439758q0.22064209 -0.013381958 0.38442993 0.13160706q0.17550659 0.15533447 0.18756104 0.35379028q0.0016479492 0.21012878 -0.25741577 0.5024872l-0.92230225 1.0407715l4.4695435 3.9559326zm-14.96994 6.3385315l1.1231995 0.99417114q0.07519531 -2.9590607 1.7850647 -4.8885956q1.2331848 -1.3916016 2.639862 -1.565445q1.40802 -0.15179443 2.4376526 0.7595215q1.12323 0.9941559 1.0537109 2.7688599q-0.0798645 1.7863922 -1.8415527 3.7743988q-0.47668457 0.5379181 -1.1064758 1.1072693q-0.618103 0.57969666 -1.4230652 1.1818085l1.2636414 1.1184235q0.6318054 0.55921936 1.6283264 0.37705994q1.0082397 -0.17181396 2.0548706 -1.3529205q0.8083191 -0.9121399 1.7325745 -3.0153198q0.16549683 -0.37521362 0.23803711 -0.45706177q0.13470459 -0.15202332 0.33328247 -0.16407776q0.21026611 -0.0016784668 0.37405396 0.14329529q0.16381836 0.14498901 0.16281128 0.31103516q0.026397705 0.25289917 -0.53619385 1.3825073q-0.89886475 1.7918243 -1.5517273 2.5285492q-1.3057251 1.4734497 -2.7565308 1.6499786q-1.4611816 0.18821716 -2.3738098 -0.61953735l-5.159851 -4.566925l-0.91192627 1.0290833q-0.25906372 0.2923584 -0.46798706 0.31608582q-0.21929932 0.03543091 -0.3948059 -0.119903564q-0.16378784 -0.14497375 -0.16680908 -0.37716675q-0.0016784668 -0.21014404 0.25738525 -0.50250244l1.6062622 -1.8125916zm3.8727722 3.4277954q0.63916016 -0.41500854 1.258606 -0.97265625q0.62075806 -0.53559875 1.2114563 -1.2021637q1.502594 -1.6956482 1.6152344 -3.3069916q0.104278564 -1.2014008 -0.6562195 -1.874527q-0.70202637 -0.62135315 -1.6805115 -0.5066681q-0.9771118 0.13671875 -1.9097595 1.1891937q-0.89120483 1.0056915 -1.2602539 2.2231598q-0.35733032 1.2278137 -0.29849243 2.9283447l1.7199402 1.5223083zm-9.566681 14.918549l-1.1115112 -0.9838104l7.0363464 -7.9403076l1.1115417 0.9838104l-7.036377 7.9403076zm-7.245758 11.380646q0.269104 0.2381897 0.29284668 0.44699097q0.013366699 0.2204895 -0.13171387 0.3842163q-0.15542603 0.17541504 -0.36569214 0.1770935q-0.22064209 0.013381958 -0.5131531 -0.24551392l-1.3338318 -1.1805573q-0.269104 -0.2381897 -0.29418945 -0.46903992q-0.023742676 -0.20881653 0.13171387 -0.3842163q0.13470459 -0.15202332 0.32159424 -0.17442322q0.19854736 -0.012054443 0.4532776 0.17167664q0.61343384 0.4386139 1.4321289 0.24510193q1.188385 -0.30445862 2.2972107 -1.5557251q1.1502686 -1.2980499 1.2662659 -2.48909q0.0892334 -0.9017334 -0.40219116 -1.3366699q-0.561615 -0.49708557 -1.5046387 -0.16325378q-0.66290283 0.20619202 -1.8900452 1.3318634q-1.6055908 1.4584503 -2.3874817 1.8931732q-1.1255493 0.61047363 -2.0822754 0.5357208q-0.96710205 -0.063064575 -1.6340332 -0.6533356q-0.99453735 -0.880249 -0.9169922 -2.5226593q0.06716919 -1.6307068 1.7044983 -3.4783783q1.6269531 -1.835968 3.6096497 -2.188614q-0.31591797 -0.27960205 -0.3784485 -0.39753723q-0.0625 -0.11791992 -0.03942871 -0.28530884q0.024383545 -0.1453247 0.12802124 -0.26226807q0.14508057 -0.1637268 0.36572266 -0.17710876q0.22195435 0.008666992 0.49105835 0.24685669l1.6029358 1.418747q0.28082275 0.24855042 0.30456543 0.45735168q0.03543091 0.21916199 -0.120025635 0.39457703q-0.14508057 0.16371155 -0.36569214 0.1770935q-0.22064209 0.013381958 -0.41955566 -0.16265869q-0.4212036 -0.372818 -0.90023804 -0.42121887q-0.7347717 -0.066085815 -1.6490479 0.3766632q-0.9246521 0.45443726 -1.8365784 1.4835205q-1.347168 1.5202332 -1.4384155 2.7540436q-0.07952881 1.2441711 0.5522766 1.8033905q0.7137146 0.6316986 1.8215637 0.27679443q1.1064758 -0.37693787 2.5318909 -1.7027435q1.4267273 -1.3037415 2.220337 -1.7281189q0.80529785 -0.41400146 1.5958862 -0.34024048q0.8023071 0.084121704 1.3522034 0.57084656q1.0062256 0.89060974 0.72076416 2.3907013q-0.28546143 1.5001068 -1.4875488 2.8566132q-1.4300537 1.6137848 -3.105194 1.9256439zm-17.301971 4.399658l1.12323 0.9941559q0.075164795 -2.9590607 1.7850342 -4.8885803q1.2331848 -1.3916016 2.639862 -1.565445q1.4080505 -0.15180969 2.4376526 0.7595062q1.12323 0.99417114 1.0537415 2.7688751q-0.0798645 1.7863922 -1.8415527 3.7743835q-0.47668457 0.53793335 -1.1065063 1.1072845q-0.6180725 0.57969666 -1.4230347 1.1818085l1.2636108 1.1184235q0.63183594 0.55921936 1.6283569 0.37704468q1.0082092 -0.1717987 2.05484 -1.3529053q0.8083191 -0.9121399 1.732605 -3.015335q0.16546631 -0.37519836 0.23800659 -0.45706177q0.13470459 -0.15202332 0.33328247 -0.1640625q0.21026611 -0.0016937256 0.37408447 0.14329529q0.16378784 0.14497375 0.16278076 0.3110199q0.026428223 0.25291443 -0.53616333 1.3825226q-0.89889526 1.7918091 -1.5517578 2.5285492q-1.3057251 1.4734497 -2.7565308 1.6499786q-1.4611816 0.18821716 -2.3738098 -0.61953735l-5.1598206 -4.566925l-0.91192627 1.0290833q-0.25909424 0.29234314 -0.46801758 0.31608582q-0.21929932 0.03543091 -0.3948059 -0.119903564q-0.16378784 -0.14498901 -0.16680908 -0.377182q-0.0016784668 -0.21014404 0.25741577 -0.5024872l1.6062317 -1.8125916zm3.8728027 3.4277802q0.63916016 -0.4149933 1.2585754 -0.972641q0.6207886 -0.535614 1.2114563 -1.202179q1.5026245 -1.6956329 1.6152344 -3.3069763q0.10430908 -1.2014008 -0.6562195 -1.874527q-0.70202637 -0.62135315 -1.680481 -0.50668335q-0.97714233 0.13673401 -1.90979 1.189209q-0.89120483 1.0056915 -1.2602539 2.2231445q-0.35733032 1.227829 -0.2984619 2.9283447l1.7199402 1.5223083zm-9.566681 14.918549l-1.1115417 -0.98379517l7.036377 -7.9403076l1.1115112 0.9838104l-7.0363464 7.9402924zm-7.615265 3.6461182l-3.4632874 -3.0653229l1.6062317 -1.8125916q0.24871826 -0.2806549 0.46798706 -0.31608582q0.22064209 -0.013381958 0.38446045 0.1315918q0.17550659 0.15533447 0.17715454 0.36547852q-0.008666992 0.22184753 -0.25738525 0.50250244l-0.92230225 1.0407715l10.062286 8.906021l0.9222717 -1.0407715q0.24871826 -0.2806549 0.46801758 -0.31608582q0.22061157 -0.013381958 0.39611816 0.14195251q0.16381836 0.14498901 0.16549683 0.35513306q0.0029907227 0.23217773 -0.24569702 0.5128479l-1.6062622 1.8125916l-7.1605835 -6.337784l-0.15969849 5.7637787l0.35232544 -0.39761353q0.24871826 -0.28063965 0.4576416 -0.30438232q0.22064209 -0.013397217 0.38442993 0.1315918q0.17550659 0.15533447 0.17718506 0.36547852q0.013366699 0.22052002 -0.23532104 0.50115967l-2.207306 2.4908447q-0.24868774 0.28067017 -0.46932983 0.29403687q-0.21929932 0.03543091 -0.3948059 -0.119903564q-0.16378784 -0.1449585 -0.16680908 -0.37716675q-0.0016784668 -0.21014404 0.2470398 -0.4908142l0.7979431 -0.90042114l0.15536499 -5.2877045l-7.3289795 0.37815857l-0.7979431 0.90045166q-0.24871826 0.2806549 -0.4576416 0.30439758q-0.21929932 0.03543091 -0.3948059 -0.11991882q-0.16378784 -0.14497375 -0.16680908 -0.37716675q-0.0016784668 -0.21014404 0.2470398 -0.49079895l2.2383728 -2.52594q0.23834229 -0.26895142 0.4576416 -0.30438232q0.22064209 -0.013397217 0.38442993 0.1315918q0.17550659 0.15533447 0.17718506 0.36547852q-0.00869751 0.22184753 -0.2470398 0.49079895l-0.48706055 0.54963684l6.4036865 -0.2999115l0.038757324 -1.5515289zm-16.932495 12.134201l1.12323 0.9941406q0.07519531 -2.9590454 1.7850647 -4.8885803q1.2331543 -1.3916016 2.639862 -1.5654602q1.40802 -0.15179443 2.4376526 0.7595215q1.12323 0.99417114 1.0537109 2.7688599q-0.0798645 1.7864075 -1.8415527 3.774414q-0.47668457 0.53793335 -1.1064758 1.1072693q-0.618103 0.5797119 -1.4230652 1.1817932l1.2636414 1.1184387q0.6318054 0.5592346 1.6283264 0.37704468q1.0082092 -0.17178345 2.0548706 -1.3529053q0.8082886 -0.9121399 1.7325745 -3.0153198q0.16546631 -0.37521362 0.23800659 -0.45706177q0.1347351 -0.15203857 0.33328247 -0.1640625q0.21029663 -0.0017089844 0.37408447 0.14328003q0.16381836 0.14498901 0.16281128 0.31103516q0.026397705 0.25289917 -0.53619385 1.3825073q-0.89886475 1.7918091 -1.5517273 2.528534q-1.3057251 1.4734802 -2.7565308 1.6499939q-1.4611816 0.18823242 -2.3738098 -0.61953735l-5.159851 -4.566925l-0.91192627 1.0290833q-0.25906372 0.2923584 -0.46798706 0.31610107q-0.21929932 0.03543091 -0.3948059 -0.119903564q-0.16381836 -0.14498901 -0.16680908 -0.37719727q-0.0016784668 -0.21014404 0.25738525 -0.50250244l1.6062317 -1.812561zm3.8728027 3.427765q0.63916016 -0.41497803 1.258606 -0.97265625q0.62075806 -0.5355835 1.2114563 -1.2021484q1.502594 -1.6956482 1.6152344 -3.3069763q0.104278564 -1.201416 -0.65625 -1.8745422q-0.70199585 -0.6213379 -1.680481 -0.50668335q-0.9771118 0.13674927 -1.90979 1.189209q-0.89120483 1.0057068 -1.2602234 2.2231445q-0.35736084 1.2278442 -0.29849243 2.9283447l1.7199402 1.5223083zm-9.566681 14.918549l-1.1115417 -0.98379517l7.036377 -7.9403076l1.1115417 0.9838257l-7.036377 7.940277zm1.3999634 9.893555l-4.785431 -4.235565q0.15447998 1.451294 -0.11895752 2.4195251q-0.2734375 0.9682007 -1.0195618 1.8101807q-0.8082886 0.9121399 -1.6838074 1.2640076q-0.8754883 0.3518982 -1.9154663 0.18258667q-1.050354 -0.15759277 -1.7757721 -0.7996521l-4.8322296 -4.2769775l-0.7668457 0.86535645q-0.25907898 0.2923584 -0.46800232 0.31610107q-0.2089386 0.023742676 -0.3844452 -0.1315918q-0.1638031 -0.14498901 -0.1771698 -0.36547852q-0.0016784668 -0.21014404 0.2574005 -0.50250244l2.2383728 -2.52594q0.248703 -0.28063965 0.46800232 -0.31607056q0.22062683 -0.013397217 0.38442993 0.1315918q0.17550659 0.15533447 0.17718506 0.36547852q-0.00869751 0.22183228 -0.2574005 0.50250244l-0.7772217 0.8770447l4.7737274 4.225189q0.8424225 0.745636 1.9429169 0.63461304q1.1121826 -0.10064697 2.0759277 -1.1882019q0.74612427 -0.84198 0.86376953 -1.822876q0.090911865 -0.69158936 -0.12808228 -2.659027l-4.9375153 -4.370178l-0.7772064 0.8770447q-0.23835754 0.26898193 -0.44728088 0.2927246q-0.21929932 0.03543091 -0.3948059 -0.119903564q-0.1638031 -0.14498901 -0.16680908 -0.37719727q-0.0016784668 -0.21014404 0.23666382 -0.47909546l2.2487488 -2.5376282q0.248703 -0.28063965 0.45762634 -0.30438232q0.22064209 -0.013397217 0.38442993 0.1315918q0.17550659 0.15533447 0.17718506 0.36547852q0.0016784668 0.21014404 -0.2470398 0.4908142l-0.7772064 0.8770447l10.062271 8.906036l0.92230225 -1.0407715q0.24868774 -0.28067017 0.46798706 -0.31610107q0.22064209 -0.013366699 0.39614868 0.14196777q0.16378784 0.1449585 0.16546631 0.35510254q0.0030212402 0.23220825 -0.24569702 0.5128784l-1.6166077 1.8242798zm-25.947708 5.8867493l1.12323 0.99417114q0.07518005 -2.9590454 1.7850494 -4.8885803q1.2331696 -1.3916016 2.639862 -1.5654602q1.4080353 -0.15179443 2.4376678 0.7595215q1.1232147 0.99417114 1.0537109 2.7688599q-0.0798645 1.7864075 -1.8415527 3.774414q-0.47668457 0.53793335 -1.1064758 1.1072693q-0.618103 0.5797119 -1.4230652 1.1817932l1.2636261 1.1184387q0.6318207 0.5592041 1.6283417 0.37704468q1.0082092 -0.17181396 2.0548706 -1.3529053q0.8082886 -0.9121399 1.7325745 -3.0153198q0.16546631 -0.37521362 0.23800659 -0.45706177q0.13471985 -0.15203857 0.33329773 -0.1640625q0.21026611 -0.0017089844 0.3740692 0.14328003q0.1638031 0.14498901 0.16279602 0.31103516q0.026412964 0.25289917 -0.5361786 1.3825073q-0.89888 1.7918091 -1.5517426 2.528534q-1.3057098 1.4734802 -2.7565308 1.6499939q-1.4611816 0.1882019 -2.3738098 -0.61953735l-5.159836 -4.566925l-0.91192627 1.0290833q-0.25906372 0.2923584 -0.46800232 0.31607056q-0.21929932 0.035461426 -0.39479065 -0.119903564q-0.16381836 -0.1449585 -0.16682434 -0.37716675q-0.0016784668 -0.21014404 0.2574005 -0.50250244l1.6062317 -1.8125916zm3.8728027 3.4277954q0.63916016 -0.41497803 1.2585907 -0.97265625q0.6207733 -0.5355835 1.2114563 -1.2021484q1.5026093 -1.6956482 1.6152496 -3.3069763q0.104278564 -1.201416 -0.65625 -1.8745422q-0.7020111 -0.6213684 -1.680481 -0.50668335q-0.9771271 0.13671875 -1.9097748 1.189209q-0.89120483 1.0056763 -1.2602539 2.2231445q-0.35733032 1.2278137 -0.29847717 2.9283447l1.7199402 1.5223083zm-9.566681 14.918549l-1.1115265 -0.98379517l7.0363617 -7.9403076l1.1115265 0.98379517l-7.0363617 7.9403076zm-1.2114716 12.840454l-10.846176 -9.599884l-2.704712 3.052185q-0.25906372 0.29232788 -0.46800232 0.31607056q-0.20892334 0.023742676 -0.38442993 -0.1315918q-0.1638031 -0.14498901 -0.17718506 -0.36547852q-0.001663208 -0.21014404 0.2574005 -0.50250244l6.103714 -6.8878174q0.23834229 -0.26898193 0.4576416 -0.30441284q0.22062683 -0.013366699 0.38442993 0.13162231q0.17550659 0.15533447 0.17718506 0.36547852q-0.00869751 0.22183228 -0.2470398 0.4907837l-2.7150574 3.0638733l10.062256 8.906006l1.9896698 -2.2452698q0.248703 -0.28063965 0.46800232 -0.31607056q0.22062683 -0.013397217 0.39613342 0.14193726q0.1638031 0.14498901 0.16548157 0.35513306q0.013366699 0.2204895 -0.24569702 0.5128479l-2.6736145 3.0170898zm-23.336273 2.9398499l1.12323 0.99417114q0.07518005 -2.9590454 1.7850494 -4.8885803q1.2331696 -1.3916016 2.639862 -1.5654602q1.4080353 -0.15179443 2.4376526 0.7595215q1.12323 0.99417114 1.0537262 2.7688599q-0.07987976 1.7864075 -1.8415527 3.7743835q-0.47669983 0.53793335 -1.1064911 1.1072998q-0.61808777 0.5796814 -1.4230499 1.1817932l1.2636261 1.1184387q0.6318207 0.5592041 1.6283417 0.37704468q1.0082092 -0.17181396 2.0548553 -1.3529053q0.80830383 -0.9121399 1.7325897 -3.0153503q0.16546631 -0.3751831 0.23800659 -0.45703125q0.13471985 -0.15203857 0.33328247 -0.16409302q0.21026611 -0.0016784668 0.3740692 0.14331055q0.16381836 0.14498901 0.16281128 0.31103516q0.026412964 0.25289917 -0.5361786 1.3825073q-0.89888 1.7918091 -1.5517426 2.528534q-1.3057251 1.4734497 -2.756546 1.6499939q-1.4611664 0.1882019 -2.3737946 -0.61953735l-5.159836 -4.566925l-0.91192627 1.0290833q-0.25907898 0.29232788 -0.46800232 0.31607056q-0.21929932 0.03543091 -0.3948059 -0.119903564q-0.1638031 -0.14498901 -0.16680908 -0.37716675q-0.0016784668 -0.21014404 0.25738525 -0.50250244l1.606247 -1.8125916zm3.8728027 3.4277954q0.63916016 -0.41500854 1.2585907 -0.97265625q0.6207733 -0.5355835 1.2114563 -1.2021484q1.5026093 -1.6956482 1.6152344 -3.3070068q0.104278564 -1.2013855 -0.65623474 -1.8745117q-0.7020111 -0.6213684 -1.680481 -0.50668335q-0.9771271 0.13671875 -1.90979 1.189209q-0.89120483 1.0056763 -1.2602386 2.2231445q-0.35734558 1.2278137 -0.29847717 2.9283447l1.7199402 1.5223083zm-9.566696 14.918549l-1.1115265 -0.98379517l7.036377 -7.9403076l1.1115265 0.98379517l-7.036377 7.9403076zm1.3999786 9.893524l-4.785431 -4.2355347q0.15446472 1.451294 -0.11897278 2.4194946q-0.2734375 0.9682312 -1.0195618 1.8102112q-0.80830383 0.9121399 -1.6838074 1.2640076q-0.8754883 0.35186768 -1.9154663 0.18258667q-1.050354 -0.15759277 -1.7757721 -0.7996826l-4.8322296 -4.276947l-0.7668457 0.86535645q-0.25906372 0.2923584 -0.46800232 0.31610107q-0.20892334 0.023742676 -0.38442993 -0.1315918q-0.1638031 -0.14498901 -0.17718506 -0.36547852q-0.0016784668 -0.21014404 0.2574005 -0.50250244l2.2383728 -2.52594q0.248703 -0.28067017 0.46800232 -0.31610107q0.22062683 -0.013366699 0.38442993 0.13162231q0.17550659 0.15533447 0.17718506 0.36547852q-0.008682251 0.22183228 -0.2574005 0.50250244l-0.7772064 0.8770447l4.7737274 4.225189q0.8424225 0.74560547 1.9429016 0.63461304q1.1121826 -0.10067749 2.0759277 -1.1882324q0.74612427 -0.84194946 0.86376953 -1.822876q0.090927124 -0.69155884 -0.12806702 -2.659027l-4.9375305 -4.3701477l-0.7772064 0.8770447q-0.23834229 0.26898193 -0.44728088 0.2926941q-0.21928406 0.03543091 -0.39479065 -0.119903564q-0.1638031 -0.1449585 -0.16682434 -0.37716675q-0.0016784668 -0.21014404 0.23667908 -0.47909546l2.2487335 -2.5376282q0.248703 -0.28067017 0.4576416 -0.30441284q0.22062683 -0.013366699 0.38442993 0.13162231q0.17550659 0.15533447 0.17718506 0.36547852q0.001663208 0.21014404 -0.2470398 0.4907837l-0.7772064 0.8770752l10.062256 8.906036l0.922287 -1.040802q0.24871826 -0.28063965 0.46800232 -0.31607056q0.22064209 -0.013397217 0.39614868 0.14193726q0.1638031 0.14498901 0.16546631 0.35513306q0.0030212402 0.23220825 -0.24569702 0.5128479l-1.6165924 1.8242798zm-15.12468 9.811432l-1.953949 -1.7294006q0.021759033 2.7318726 -0.25535583 3.8220215q-0.2757721 1.1122131 -0.83535767 1.7437134q-0.6217804 0.70162964 -1.6182861 0.88378906q-0.996521 0.18218994 -1.2305298 -0.024932861q-0.17550659 -0.15533447 -0.18887329 -0.3758545q-0.013381958 -0.2204895 0.14205933 -0.39590454q0.082901 -0.09353638 0.16848755 -0.14300537q0.08691406 -0.027404785 0.41786194 -0.04748535q0.61776733 -0.037475586 0.9523926 -0.17947388q0.33595276 -0.1199646 0.5432129 -0.35385132q0.44560242 -0.50283813 0.67858887 -1.590332q0.22262573 -1.0758057 0.20787048 -4.2396545l-4.2706146 -3.7798767l-3.0466766 3.4380493q-0.25906372 0.2923584 -0.46800232 0.31610107q-0.20892334 0.023742676 -0.38442993 -0.1315918q-0.1638031 -0.14498901 -0.17718506 -0.36547852q-0.0016784668 -0.21014404 0.2574005 -0.50250244l5.3990326 -6.092621q0.24871826 -0.28067017 0.46800232 -0.31610107q0.2089386 -0.023742676 0.3727417 0.12124634q0.1638031 0.14498901 0.16548157 0.35513306q0.001663208 0.21014404 -0.2574005 0.5024719l-1.6580505 1.8710632l6.481964 5.737152l1.264267 -1.4266968q0.248703 -0.28063965 0.46800232 -0.31607056q0.22062683 -0.013397217 0.39613342 0.14193726q0.1638031 0.14498901 0.16548157 0.35513306q0.013366699 0.2204895 -0.24569702 0.5128479l-1.9585724 2.2101746zm-7.23967 16.22699l-2.0124512 -1.7812195l1.0155487 -1.1459961l2.0124664 1.781189l-1.015564 1.1460266zm-4.032593 -3.5066223l-7.2424927 -6.410248l-2.7046967 3.0521545q-0.248703 0.28063965 -0.4576416 0.30438232q-0.21929932 0.03543091 -0.3948059 -0.119903564q-0.1638031 -0.14498901 -0.16680908 -0.37716675q-0.0016784668 -0.21014404 0.2470398 -0.4908142l6.103714 -6.8878174q0.248703 -0.28067017 0.45762634 -0.30441284q0.22064209 -0.013366699 0.3844452 0.13162231q0.17550659 0.15533447 0.1771698 0.36547852q0.0016784668 0.21014404 -0.24702454 0.4907837l-2.704712 3.052185l6.4585724 5.7164l2.0103912 -2.2686462q0.24871826 -0.28063965 0.46800232 -0.31610107q0.22062683 -0.013366699 0.3844452 0.13162231q0.17549133 0.15533447 0.1771698 0.36547852q0.0030212402 0.23217773 -0.24569702 0.5128479l-2.7046967 3.0521545zm-6.577896 7.422943l-0.7839203 -0.69384766q0.19424438 1.9246826 -0.69696045 2.9303894q-0.5285034 0.5963745 -1.2485504 0.77285767q-0.72006226 0.17645264 -1.6447144 -0.09942627q0.19924927 1.0944824 0.048828125 1.9002991q-0.16078186 0.8175354 -0.63746643 1.3554688q-0.74612427 0.84198 -1.7416382 0.85809326q-1.2823486 0.03353882 -2.1130676 -0.7017212l-5.4406433 -4.8154907l-0.58032227 0.6548767q-0.248703 0.28067017 -0.45762634 0.30441284q-0.21929932 0.03543091 -0.3948059 -0.119903564q-0.1638031 -0.14498901 -0.16680908 -0.37719727q-0.0016784668 -0.21014404 0.24702454 -0.4907837l1.264267 -1.4266968l6.1426697 5.4368286q0.5850067 0.51779175 1.2923737 0.49700928q0.7190552 -0.010406494 1.1335602 -0.47817993q0.38342285 -0.43267822 0.48069763 -1.2020874q0.098602295 -0.7473755 -0.30891418 -2.1722412l-5.159836 -4.5669556l-0.56996155 0.6431885q-0.248703 0.28067017 -0.45762634 0.30441284q-0.21929932 0.03543091 -0.3948059 -0.11993408q-0.1638031 -0.1449585 -0.16680908 -0.37716675q-0.0016784668 -0.21014404 0.24702454 -0.4907837l1.264267 -1.4266968l6.0841675 5.3850403q0.6201172 0.54885864 1.3495331 0.5267639q0.73075867 -9.1552734E-5 1.134903 -0.45614624q0.36270142 -0.40930176 0.45629883 -1.0567627q0.1230011 -0.8927002 -0.26379395 -2.340973l-5.159836 -4.566925l-0.580307 0.6548767q-0.24871826 0.28063965 -0.4576416 0.30438232q-0.2089386 0.023742676 -0.3844452 -0.1315918q-0.1638031 -0.14498901 -0.1771698 -0.36547852q-0.0016784668 -0.21014404 0.24702454 -0.4908142l1.85495 -2.0932312q0.24871826 -0.28067017 0.4576416 -0.30441284q0.22062683 -0.013366699 0.38442993 0.13162231q0.17550659 0.15533447 0.17718506 0.36547852q0.0016784668 0.21014404 -0.2470398 0.4907837l-0.580307 0.6548767l6.458557 5.7164307l0.58032227 -0.6548767q0.24871826 -0.28063965 0.4576416 -0.30438232q0.22062683 -0.013397217 0.39613342 0.14193726q0.1638031 0.14498901 0.16548157 0.35513306q0.013381958 0.2204895 -0.2353363 0.50115967l-1.2746277 1.438385z" fill-rule="nonzero"/><path fill="#000000" fill-opacity="0.0" d="m19.654745 -31.801046l76.69291 19.52756l-37.700787 145.48032l-76.69292 -19.527565z" fill-rule="evenodd"/><path fill="#f3f3f3" d="m93.66092 11.176775l-8.574341 5.1207657l-5.068489 -8.594504l8.604088 -5.048697l5.038742 8.522436zm17.027405 10.655949q-4.3998566 7.1994553 -13.041794 9.9650955q-8.071159 2.5562534 -16.671745 0.36637306q-8.540016 -2.1744614 -14.41452 -8.281561q-6.227379 -6.551668 -6.582073 -14.961729l8.646008 2.2014484q0.7011337 5.08008 5.009697 8.821386q3.811554 3.2922897 9.292915 4.687954q5.496498 1.399519 10.376373 0.32024384q5.5942307 -1.2198582 8.678558 -5.3360825l8.706581 2.2168713zm1.2137604 41.843292q-1.9873047 7.6686287 -7.74144 11.685513q-5.9256897 4.1183167 -13.072655 2.298561q-2.3772736 -0.6053009 -4.323433 -1.5039215l2.3008804 -8.87867q1.3479462 1.2138824 3.7706528 1.8307495q3.7854614 0.96385956 6.8519135 -1.4639435q2.8068924 -2.2359238 3.9004898 -6.4559364q0.9681778 -3.7359962 -0.0260849 -6.875271q-1.1677399 -3.7155228 -4.665512 -4.606125q-4.0277405 -1.0255432 -8.335831 5.6329536q-6.106003 9.360928 -9.465675 11.923679q-7.6090164 5.818016 -19.7528 2.7259598q-0.83280563 -0.21204376 -1.7963524 -0.6669922q-0.11673355 1.2601624 -0.48126984 2.666832q-2.265602 8.742538 -10.474869 12.392273q-7.535343 3.3537521 -16.423626 1.0906143q-16.277512 -4.144577 -23.185833 -21.833637l8.44101 -3.2360115q2.212103 5.8517685 6.568554 10.217964q4.653759 4.6515045 10.437954 6.124275q5.1936607 1.3224106 9.470547 -0.23287201q5.1896935 -1.8388138 6.608635 -7.314247q1.4855766 -5.732563 -1.3780556 -9.87989q-2.5718613 -3.6538277 -7.5232506 -4.914551q-3.5886269 -0.91373444 -6.586235 -0.3709793l2.3165588 -8.939171q2.4581947 -0.4543724 6.289089 0.5210495q2.0441513 0.5204811 4.341419 1.6213684q4.106941 -1.6469231 5.502365 -7.031601q1.1445618 -4.416645 -1.2792625 -8.08115q-2.3531075 -3.5013866 -6.9108124 -4.661869q-8.509731 -2.16675 -14.396976 2.79978l-6.221155 -6.3888454q8.831541 -8.666951 22.913485 -5.0814056q7.9646225 2.027954 12.458851 8.976751q4.49815 6.933668 2.4755707 14.738428q-1.9637833 7.577877 -8.030151 10.370487q2.5900612 2.8361626 4.1174507 7.094715q4.263027 1.9238777 5.671219 2.2824326q7.237816 1.8428955 12.914207 -4.676815q4.6761093 -6.2100716 9.382507 -12.412434q6.160927 -6.3963356 14.610092 -4.2450066q7.8283463 1.9932556 10.47242 8.358097q2.4700546 5.852955 0.25540924 14.398861z" fill-rule="nonzero"/></g></svg>